<svg xmlns="http://www.w3.org/2000/svg" viewBox="0 0 43 56"><title>arrow.2.squarepath.devices_elevated@1x</title><rect width="43" height="56" fill="none"/><path d="M38.5,27a.99974.99974,0,0,0-1,1V39a5.00588,5.00588,0,0,1-5,5h-22a5.00588,5.00588,0,0,1-5-5V35.16406l1.543,1.543A.99989.99989,0,1,0,8.457,35.293l-3.25-3.25a.99962.99962,0,0,0-1.41406,0l-3.25,3.25A.99989.99989,0,1,0,1.957,36.707l1.543-1.543V39a7.00818,7.00818,0,0,0,7,7h22a7.00818,7.00818,0,0,0,7-7V28A.99974.99974,0,0,0,38.5,27Z" fill="#f5f5f7"/><path d="M28.17188,32.71533a.31074.31074,0,0,0-.35157.35156q0,.334.35157.334H30.7998a.29915.29915,0,0,0,.34278-.334.30692.30692,0,0,0-.34278-.35156Z" fill="#f5f5f7"/><path d="M30.60156,21.32031a1.92007,1.92007,0,0,0-1.40136-.47021h-15.75a1.94085,1.94085,0,0,0-1.376.47021,1.81128,1.81128,0,0,0-.50488,1.39307V33.146h-.92481a.95033.95033,0,0,0-.70312.29443,1.00858,1.00858,0,0,0,0,1.41553.9536.9536,0,0,0,.70312.29394H31.38867a1.96828,1.96828,0,0,0,1.415-.51855,1.78331,1.78331,0,0,0,.54492-1.35352v-8.376a1.78328,1.78328,0,0,0-.54492-1.35352,1.96828,1.96828,0,0,0-1.415-.51855h-.30762v-.31641A1.8689,1.8689,0,0,0,30.60156,21.32031Zm-4.99609,3.58155V33.146H12.98438V23.10889a.74576.74576,0,0,1,.84374-.84375H28.82227a.85949.85949,0,0,1,.63281.21093.827.827,0,0,1,.19971.55372H27.56543a1.96828,1.96828,0,0,0-1.415.51855A1.78328,1.78328,0,0,0,25.60547,24.90186Zm5.53711-.334v-.35156h.09668a.94481.94481,0,0,1,.67676.23291.83527.83527,0,0,1,.24609.63721v8.00683a.83528.83528,0,0,1-.24609.63721.94481.94481,0,0,1-.67676.23291H27.72363a.95761.95761,0,0,1-.68554-.23291.83525.83525,0,0,1-.2461-.63721V25.08643a.83524.83524,0,0,1,.2461-.63721.95761.95761,0,0,1,.68554-.23291h.09668v.35156a.52959.52959,0,0,0,.14063.37793.48342.48342,0,0,0,.36914.14941h2.30273a.48342.48342,0,0,0,.36914-.14941A.52959.52959,0,0,0,31.14258,24.56787Z" fill="#f5f5f7"/><path d="M42.457,19.293a.99962.99962,0,0,0-1.41406,0l-1.543,1.543V17a7.00818,7.00818,0,0,0-7-7h-22a7.00818,7.00818,0,0,0-7,7V28a1,1,0,0,0,2,0V17a5.00588,5.00588,0,0,1,5-5h22a5.00588,5.00588,0,0,1,5,5v3.83594l-1.543-1.543A.99989.99989,0,0,0,34.543,20.707l3.25,3.25a.99963.99963,0,0,0,1.41406,0l3.25-3.25A.99962.99962,0,0,0,42.457,19.293Z" fill="#f5f5f7"/></svg>