<svg enable-background="new 0 0 46 56" viewBox="0 0 46 56" xmlns="http://www.w3.org/2000/svg"><path d="m0 0h46v56h-46z" fill="none"/><path d="m41 14c1.6542 0 3 1.3458 3 3v22c0 1.6542-1.3458 3-3 3h-36c-1.6542 0-3-1.3458-3-3v-22c0-1.6542 1.3458-3 3-3zm0-2h-36c-2.7614 0-5 2.2386-5 5v22c0 2.7614 2.2386 5 5 5h36c2.7614 0 5-2.2386 5-5v-22c0-2.7614-2.2386-5-5-5zm-26.0498 12.7923c-.2377-.1391-.4724-.3599-.7032-.6636-.2308-.3033-.3468-.7192-.3468-1.2476 0-.4617.0928-.8418.2782-1.1384.1845-.2975.3719-.5182.5641-.6636.1913-.1449.2936-.2241.3072-.2376-.3574-.5148-.7563-.822-1.1988-.9205-.4424-.0995-.7428-.1488-.9012-.1488-.396 0-.7592.086-1.0886.2574-.3304.1719-.5941.2574-.7921.2574-.2251 0-.4821-.0821-.7719-.2473-.2907-.1652-.6143-.2477-.9708-.2477-.6607 0-1.2712.2671-1.8315.8022-.5612.5341-.8413 1.3234-.8413 2.3661 0 .6733.1111 1.3205.3361 1.9406.2241.6206.482 1.162.7728 1.6238.2502.383.5042.6998.7621.9505.257.2512.5574.3762.9012.3762.3294 0 .6066-.0724.8307-.2178.225-.1449.5351-.2178.9312-.2178.4221 0 .7293.0729.9206.2178.1912.1453.4724.2178.8413.2178.37 0 .6801-.1352.9312-.4057.2502-.2704.4946-.5709.7322-.9012.2908-.3825.4859-.7327.5844-1.0495.0995-.3168.1487-.4815.1487-.4951-.0268 0-.1582-.0695-.3958-.2076zm-3.9808-5.1191h.0696s.0695 0 .1091 0c.2241 0 .4753-.0724.7525-.2178.2772-.1449.5013-.3298.6733-.5544.1449-.2111.2734-.442.3864-.6931.1121-.2507.1681-.5212.1681-.8119 0-.0527 0-.0923 0-.1188 0-.0261 0-.0527 0-.0792-.2772 0-.5612.0764-.851.228-.2908.1517-.5419.34-.7534.5641-.1584.1719-.2936.3898-.4057.6534-.1121.2642-.1681.5347-.1681.8119 0 .0266.0029.0662.0096.1188.0068.0531.0096.0859.0096.099z" fill="#1d1d1f"/></svg>